<?xml version="1.0" encoding="utf-8"?>
<!-- Generator: Adobe Illustrator 22.1.0, SVG Export Plug-In . SVG Version: 6.00 Build 0)  -->
<svg version="1.1" id="Capa_1" xmlns="http://www.w3.org/2000/svg" xmlns:xlink="http://www.w3.org/1999/xlink" x="0px" y="0px"
	 viewBox="0 0 2137.6 604.6" style="enable-background:new 0 0 2137.6 604.6;" xml:space="preserve">
<style type="text/css">
	.st0{fill:#333333;}
	.st1{fill:#F8F8F8;}
	.st2{fill:#E63943;}
</style>
<g id="XMLID_1_">
	<g>
		<path class="st0" d="M462.2,129.2l69.5,69.4v88.5l-11.6,11.5c6.3,13.7,24.6,64.2-21.5,110.3c-13.6,13.5-35,20.7-57,20.7
			c-14.9,0-29.9-3.3-42.8-10.1L336,482.1L178.7,324.5l37.6-37.5v-0.1l111.8-111.4c-76.1-2.2-136,39.6-136.9,40.2
			c-1.1,0.8-2.4,1.2-3.6,1.2c-2,0-3.9-0.9-5.1-2.6c-2-2.8-1.4-6.7,1.4-8.7c1-0.7,70.2-49,156.1-41.8l34.5-34.4h87.7V129.2z
			 M519.2,281.9v-78.1L457,141.7h-77.3l-23.9,23.9c24.6,4,50.2,12.9,75.8,28.9c4.5-5.5,11.2-9,18.9-9c13.6,0,24.6,11,24.6,24.6
			c0,13.6-11.1,24.7-24.6,24.7s-24.6-11-24.6-24.6c0-1.4,0.2-2.9,0.4-4.2c-27.6-17.5-55.4-26.2-81.6-29.2L234,287l139.6,139.9
			l14.4-14.3c-19.4-14.8-41.2-46.2-25-109.8c0.9-3.3,4.2-5.4,7.6-4.5c3.3,0.9,5.4,4.3,4.5,7.6c-11.5,45.1-3.7,79.5,21.9,97.8
			L519.2,281.9z M489.7,400.1c37.2-37.2,27.2-76.6,20.9-92.1L408.2,410.3C437.4,423.6,473.6,416.2,489.7,400.1z M462.6,210.2
			c0-6.7-5.4-12.1-12.1-12.1c-3.3,0-6.2,1.3-8.4,3.4c1.9,1.4,3.9,2.6,5.8,4.1c2.8,2.1,3.3,6,1.2,8.8c-2.1,2.8-6,3.3-8.8,1.2
			c-0.4-0.3-0.7-0.5-1.1-0.7c1.8,4.4,6.1,7.5,11.2,7.5C457.1,222.3,462.6,216.8,462.6,210.2z M364.8,435.9l-139.7-140l-28.7,28.7
			l139.7,140L364.8,435.9z"/>
		<path class="st1" d="M519.2,203.8v78.1L396.9,403.7c-25.6-18.3-33.3-52.7-21.9-97.8c0.9-3.3-1.2-6.8-4.5-7.6
			c-3.4-0.9-6.8,1.2-7.6,4.5c-16.2,63.6,5.6,95,25,109.8l-14.4,14.3L234,287l110.6-110.3c26.3,3,54,11.7,81.6,29.2
			c-0.2,1.4-0.4,2.8-0.4,4.2c0,13.6,11,24.6,24.6,24.6s24.6-11,24.6-24.6c0-13.6-11.1-24.6-24.6-24.6c-7.6,0-14.3,3.5-18.9,9
			c-25.6-16-51.2-24.9-75.8-28.9l24-23.9H457L519.2,203.8z"/>
		
			<rect x="260.2" y="281.3" transform="matrix(0.7079 -0.7063 0.7063 0.7079 -186.5602 309.1912)" class="st2" width="40.6" height="197.7"/>
	</g>
</g>
<g>
	<path class="st2" d="M573.2,391.6V270h35.5v14c6.1-10.8,21.8-17.6,35-17.6c17.4,0,29.9,7.1,36,19.1c9.5-13.7,21.3-19.1,37.7-19.1
		c23,0,45,13.5,45,46.5v78.8h-36v-70.5c0-11.5-6.1-20.6-19.3-20.6s-20.3,10-20.3,20.8v70.2h-36.7v-70.5c0-11.5-6.1-20.6-19.6-20.6
		c-13,0-20.1,10-20.1,21v70h-37.2V391.6z"/>
	<path class="st2" d="M798.9,438.4l27.7-63.2L775.4,270H817l29.6,65.1l26.9-65.1h39.4L838,438.4L798.9,438.4L798.9,438.4z"/>
	<path class="st0" d="M1127.6,218.1h39.7l-47.2,173.5h-39.9l-37-115l-37.2,115h-40.6l-47.2-173.5h41.1l28.6,111.1l36-111.1h39.7
		l36,111.4L1127.6,218.1z"/>
	<path class="st0" d="M1207.4,321.4l28.6-4.4c6.6-1,8.8-4.2,8.8-8.3c0-7.1-6.1-13.2-17.9-13.2c-13,0-20.1,8.8-20.8,17.9l-32.3-6.6
		c1.5-17.4,17.6-40.4,53.4-40.4c39.4,0,53.8,22,53.8,47v59.4c0,9.5,1.2,17.6,1.5,18.8H1249c-0.2-1-1.2-5.4-1.2-13.7
		c-6.4,10.3-18.1,17.1-34.3,17.1c-26.7,0-42.1-17.6-42.1-37C1171.4,336.6,1187.3,324.3,1207.4,321.4z M1244.8,343.9v-5.4l-23,3.7
		c-7.8,1.2-13.7,4.9-13.7,13.5c0,6.4,4.2,12.5,14.4,12.5C1233.6,368.1,1244.8,362.7,1244.8,343.9z"/>
	<path class="st0" d="M1312.4,391.6V214.4h37.2v177.2H1312.4z"/>
	<path class="st0" d="M1382.4,391.6V214.4h37.2v177.2H1382.4z"/>
	<path class="st0" d="M1479.8,321.4l28.6-4.4c6.6-1,8.8-4.2,8.8-8.3c0-7.1-6.1-13.2-17.9-13.2c-13,0-20.1,8.8-20.8,17.9l-32.3-6.6
		c1.5-17.4,17.6-40.4,53.4-40.4c39.4,0,53.8,22,53.8,47v59.4c0,9.5,1.2,17.6,1.5,18.8h-33.5c-0.2-1-1.2-5.4-1.2-13.7
		c-6.4,10.3-18.1,17.1-34.3,17.1c-26.7,0-42.1-17.6-42.1-37C1443.8,336.6,1459.7,324.3,1479.8,321.4z M1517.3,343.9v-5.4l-23,3.7
		c-7.8,1.2-13.7,4.9-13.7,13.5c0,6.4,4.2,12.5,14.4,12.5C1506,368.1,1517.3,362.7,1517.3,343.9z"/>
	<path class="st0" d="M1584.8,438.1V270h36v12.5c5.1-7.8,18.4-15.4,35.7-15.4c35.2,0,56.5,26.9,56.5,63.4c0,37.2-24,63.9-58,63.9
		c-15.7,0-27.4-5.4-33-12.2v56.1h-37.2V438.1z M1648.9,300.6c-14.4,0-27.4,9.8-27.4,30.1c0,20.1,13,30.4,27.4,30.4
		c14.7,0,27.7-10,27.7-30.4C1676.6,310.4,1663.6,300.6,1648.9,300.6z"/>
	<path class="st0" d="M1857.5,330.7c0,37.7-28.1,64.6-64.6,64.6c-36.2,0-64.6-26.9-64.6-64.6s28.4-64.4,64.6-64.4
		C1829.3,266.3,1857.5,293,1857.5,330.7z M1820.3,330.7c0-20.6-13.2-30.1-27.4-30.1c-14,0-27.4,9.5-27.4,30.1
		c0,20.3,13.5,30.4,27.4,30.4C1807,361,1820.3,351.2,1820.3,330.7z"/>
	<path class="st0" d="M1881.4,438.1V270h36v12.5c5.1-7.8,18.4-15.4,35.7-15.4c35.2,0,56.5,26.9,56.5,63.4c0,37.2-24,63.9-58,63.9
		c-15.7,0-27.4-5.4-33-12.2v56.1h-37.2V438.1z M1945.6,300.6c-14.4,0-27.4,9.8-27.4,30.1c0,20.1,13,30.4,27.4,30.4
		c14.7,0,27.7-10,27.7-30.4C1973.2,310.4,1960.3,300.6,1945.6,300.6z"/>
</g>
</svg>
